<svg version="1" xmlns="http://www.w3.org/2000/svg" width="933.333" height="933.333" viewBox="0 0 700.000000 700.000000"><path d="M95.5 1.5c-4.2 2.3-8.1 6.2-10 10-1.2 2.7-1.5 8.1-1.5 31.3v28.1l-31.7.3c-31.1.3-31.9.4-36.3 2.6-6.3 3.3-10.9 7.9-13.6 13.7l-2.4 5V191h700V92.5l-2.4-5c-2.7-5.8-7.3-10.4-13.6-13.7-4.4-2.2-5.2-2.3-36.2-2.6l-31.7-.3-.3-29.2c-.3-28.7-.3-29.3-2.6-32.5-1.3-1.7-4-4.4-5.9-6C604.1.8 602.8.5 596.5.5c-8.1 0-12.3 2.1-16.6 8.3-2.4 3.5-2.4 3.8-2.7 32.9l-.3 29.3H547V43.2c0-24.8-.2-28.1-1.9-31.7-6.6-14.4-26.2-15.5-34.6-2l-3 4.8-.3 28.4-.3 28.3H193.1l-.3-28.3-.3-28.4-3-4.8c-8.5-13.8-28.7-12.2-35 2.7-1.2 3.1-1.5 8.7-1.5 31.3V71h-29.9l-.3-29.3c-.3-29.1-.3-29.4-2.7-32.9-3.9-5.6-8.5-8.2-15.5-8.6-4.2-.2-7 .2-9.1 1.3zM321.3 259.5c-1.8.8-4.2 2.9-5.3 4.7-1.9 3.1-2 5-2 29.8 0 37.9-1.9 36 36 36 28 0 30.5-.5 34-6.2 1.9-3.1 2-5 2-29.3 0-38.3 1.8-36.5-36-36.5-19.6.1-26.2.4-28.7 1.5zM445.9 259.7c-5.7 3.5-5.9 4.7-5.9 34.3 0 38.6-2.6 36 36.5 36 38.5 0 36.5 1.9 36.5-34.8 0-13.2-.3-25.4-.6-27.2-.4-1.8-2.2-4.8-4.1-6.6l-3.4-3.4h-28.2c-24.3 0-28.6.3-30.8 1.7zM571.7 260.1c-5.5 4.1-5.7 5.5-5.7 33.9 0 28.3.2 29.7 5.6 33.9 2.6 2 3.8 2.1 30.6 2.1 39 0 36.8 2.2 36.8-35.5 0-28.5-.4-31-6.2-34.5-3.1-1.9-5-2-30.8-2-26.2.1-27.6.2-30.3 2.1zM68.5 368.6c-6.5 3.3-6.5 3.1-6.5 33.7 0 30.9.2 32.2 6.4 35.1 2.9 1.3 7.4 1.6 29.1 1.6 38.3 0 36 2.3 36-36s2.3-36-36.2-36c-21.3 0-26.3.3-28.8 1.6zM194.4 368.6c-6.2 3-6.4 4.3-6.4 34.8V431l3.4 3.8 3.4 3.7 27 .3c29.7.3 32.4-.1 35.9-5.4 1.6-2.6 1.8-5.4 1.8-30.4 0-30.8-.2-31.7-7-34.6-5.1-2.1-53.7-2-58.1.2zM321 368.8c-6.6 3.2-7 5.4-7 34.7 0 37.3-1.8 35.5 36 35.5 28 0 30.5-.5 34-6.2 1.9-3.1 2-5 2-29.3 0-38.3 1.8-36.5-36-36.5-22.3 0-25.9.2-29 1.8zM445.8 368.8c-5.4 3.3-5.8 5.5-5.8 34.7 0 38-2.6 35.5 36.9 35.5h28l3.4-3.4c1.9-1.8 3.7-4.8 4.1-6.6 1-5.3.7-49.2-.4-53.2-.7-2.3-2.4-4.8-4.4-6.3l-3.3-2.5h-27.9c-24.5 0-28.2.3-30.6 1.8zM571.5 369.2c-5.1 4-5.5 6.5-5.5 34.3 0 28 .2 29.4 5.9 33.4 2.8 2 4.2 2.1 30.1 2.1 30 0 31.3-.2 35-6.3 1.8-3 2-5.2 2-29 0-28.3-.4-30.7-5.8-34.6-2.9-2-4-2.1-31-2.1-27.1 0-28 .1-30.7 2.2zM450.5 475.6c-3.9 1-6.6 2.8-8.5 6-1.9 2.9-2 5-2 30.4 0 38.5-2.5 36 36 36 29.5 0 30.9-.2 34.6-5.7 1.8-2.6 1.9-4.9 1.9-30.3 0-38.7 2.1-36.4-34.5-36.7-14-.1-26.4.1-27.5.3zM68.5 477.4c-6.3 2.7-6.5 3.6-6.5 34.2 0 24 .2 28 1.7 30.4 3.1 5.3 4.3 5.5 33.8 5.5 38.7 0 36 2.7 36-35.5 0-38.3 2.3-36-36.2-36-19.2.1-26.6.4-28.8 1.4zM194.4 477.6c-6.2 3-6.4 4.3-6.4 34.7 0 37.8-2.1 35.7 36 35.7 27.4 0 30-.4 33.5-5.6 1.8-2.7 2-5 2.3-28.4.4-28.9-.1-32-5.7-35.7-3.3-2.3-3.9-2.3-30-2.3-21.6 0-27.2.3-29.7 1.6zM321.5 476.9c-1.1.5-3.1 2.1-4.5 3.6l-2.5 2.7-.3 27.6c-.4 39.2-2.3 37.2 35.8 37.2 27.9 0 30.5-.5 34-6.2 2-3.2 2-4.6 1.8-31l-.3-27.8-3.3-3.2-3.2-3.3-27.8-.2c-15.2-.1-28.6.2-29.7.6zM571.6 478.1c-5.4 4.2-5.6 5.6-5.6 34.1 0 37.9-2.1 35.8 36.7 35.8 38.2 0 36.3 1.9 36.3-36 0-27.3-.4-29.8-5.5-33.8-2.7-2.1-3.6-2.2-31-2.2-27.1 0-28.3.1-30.9 2.1zM67.9 586.5c-5.8 3.1-5.9 3.9-5.9 34.1 0 24 .2 28 1.7 30.4 3.1 5.3 4.3 5.5 34.2 5.5 24.9 0 27.9-.2 30.2-1.8 5-3.4 5.4-6 5.4-34.7 0-37.3 2.4-35-36.2-35-21.2.1-27.3.4-29.4 1.5zM194.4 586.6c-6.2 3-6.4 4.3-6.4 34.7v27.5l2.6 3.1c4 4.8 7.3 5.3 35.4 4.9 35.6-.4 33.4 1.8 33.8-33.8.4-28.9-.1-32-5.7-35.7-3.3-2.3-3.9-2.3-30-2.3-21.6 0-27.2.3-29.7 1.6z"/></svg>