<?xml version="1.0" encoding="utf-8"?>
<!-- Generator: Adobe Illustrator 22.0.1, SVG Export Plug-In . SVG Version: 6.00 Build 0)  -->
<svg version="1.1" id="Layer_1" xmlns="http://www.w3.org/2000/svg" xmlns:xlink="http://www.w3.org/1999/xlink" x="0px" y="0px"
	 viewBox="0 0 457 131.3" style="enable-background:new 0 0 457 131.3;" xml:space="preserve">
<style type="text/css">
	.st0{fill:#A2248C;}
</style>
<polygon class="st0" points="46,27.3 50.2,13.2 33.8,14.7 11.4,13.6 11.9,19 11.6,62.3 11,77.9 13,113.8 23.6,115.4 23.7,69.3 
	36.9,66.5 37.8,58.2 24.1,57.6 22.7,35.4 23.7,25.6 "/>
<path class="st0" d="M63.8,30l-14.2,1c-6.2,1.6-7.4,7.9-7.4,11.9s-0.9,24.7-0.9,24.7c0.1,4.5,2.5,10,6.4,11.5l-2.4,4.8l-11.7,26.7
	l8.1,2.8l13.6-31.4l1.7,37.6l8.9,1.9l-1.4-31l0.1-23.1l-0.6-13.9l0.8-18.4l1-5.3L63.8,30z"/>
<path class="st0" d="M406.8,34.8c0,0.9-0.2,1.8-0.5,2.7c-0.2,0.5-0.3,0.9-0.6,1.4c-1.3,2-3.7,3.4-6.3,3.4c-1.7,0-3.3-0.4-4.5-1.4
	c-0.3-0.2-0.6-0.8-0.9-1.1c-1.2-1.3-2-3-2-4.9c0-0.4,0-0.9,0.1-1.3c0.2-1.4,0.7-2.5,1.6-3.5c0.2-0.2,0.5-0.4,0.7-0.6
	c1.3-1.2,3.1-1.9,5-1.9c0.8,0,1.6,0,2.3,0.2c0.7,0.2,1.2,0.7,1.8,1.1c0.1,0.1,0.5,0.3,0.6,0.4c0.9,0.8,1.6,1.7,2.1,2.8
	C406.6,32.8,406.8,33.8,406.8,34.8z"/>
<polygon class="st0" points="404.6,48 394.8,47.7 395.4,52 396.3,67.7 396.9,83.8 396.1,116.9 405.2,116.6 404.3,109.4 405,79.6
	404.6,65.7 405.2,56.6 "/>
<path class="st0" d="M99.7,16.3l-9.8,0.2l0.9,7.5l-1.5,58.5l-1.2,30l0.2,2.3h8.2l-0.5-6.1l2.4-44.8l0.3-4.3l-0.4-16.3
	c0-0.4,0.5-0.5,0.7-0.1l0.4,1l2,10.6l2.6,15.8l7.8,38.7l7.5,0l0.3-14L119,86l0.9-41.9l1.5-22.5l-10.2,0.3l0.6,13.7l0.4,32.7
	c0,0.3-0.4,0.3-0.5,0.1l-0.8-3L109,53.6L104.8,35L99.7,16.3z"/>
<path class="st0" d="M154.6,74.9l-0.3-21.5l-0.5-16.7c0-4.3-1.6-11.5-4.6-13.7s-5.9-2.9-10.7-2.6s-8.5,1.9-11.5,9.6
	c-2.9,7.7-3.8,26.6-3.7,31.3s0,26.6,1.7,39.2c1.7,12.6,5.7,16.3,11.2,17c5.4,0.7,10,0,13.4-8.1l2.1,5.6l5.1-0.3l-3.5-28.4l-16.1,0.9
	l0.2,4.7l8,3.5v5c0,5-2.2,8.9-6.9,9.2c-4.7,0.2-4-4.1-4.5-9.8c-0.6-5.6-2.1-24.9-1.8-36.4s-1.1-34.1,6.4-34.6
	c3.4-0.2,5.1,1.8,5.4,5.9s1.6,27.7,1.6,27.7v12.8L154.6,74.9z"/>
<path class="st0" d="M85,35.3c0,1-0.2,2-0.5,2.9c-0.2,0.5-0.3,1-0.7,1.5c-1.4,2.2-4,3.7-6.8,3.7c-1.9,0-3.6-0.5-4.9-1.6
	c-0.3-0.3-0.7-0.8-0.9-1.1c-1.3-1.4-2.2-3.2-2.2-5.3c0-0.5,0-1,0.1-1.4c0.3-1.5,0.8-2.8,1.8-3.8c0.2-0.2,0.5-0.5,0.7-0.7
	c1.4-1.3,3.3-2,5.4-2c0.9,0,1.7,0,2.5,0.2c0.8,0.2,1.3,0.7,2,1.1c0.2,0.1,0.5,0.3,0.7,0.4c1,0.8,1.7,1.8,2.3,3.1
	C84.8,33.1,85,34.2,85,35.3z"/>
<polygon class="st0" points="71.4,48.5 71.3,82.6 70.5,106.9 68.3,113.3 80.6,113 79.9,100.4 81.2,54.1 83,47.9 "/>
<path class="st0" d="M234.9,68.4c0,0-0.4,18.6,0,21.6c0.4,3-0.4,10.4-4.7,10.4s-3.9-9.5-3.9-12.9s0-29.2,0-29.2
	c-0.2-3.2,0.7-16.2,1.1-21.8c0.3-5.6,1.6-8.1,4.2-8.1c1.6,0,4.2,1.4,4,5.5c-0.1,3.2-0.2,28.9-0.2,28.9L234.9,68.4z M242.4,67.6
	c0,0,0.8-29,0.8-32.4s-0.5-14.4-12-14.2c-13.1,0.2-11.8,20.8-12.5,38.1c-0.6,16.2,1.1,36,1.1,39c0,3,0.9,9.2,9.9,10.4
	c9.1,1.2,12.1-7,12.1-15.2s0-16.4,0-16.4L242.4,67.6z"/>
<path class="st0" d="M406.3,13.8L400,14l-20.4-0.8l-20.4,0.3l0,8.7l7.4,1l7.3-1l-0.6,28.3l0.6,12.5c0,0,0.9,39.5,0.8,40.9
	s0,6.3,0,6.3l12.3-1.3l-2.1-9.5l1.5-74.4l0,0c0,0,17.1-1.1,17.1-1.7S406.3,13.8,406.3,13.8z"/>
<path class="st0" d="M284.4,55.8l-3.8,0.2l-12.3-0.5l-12.3,0.2l0,5.3l4.5,0.6l4.4-0.6c0,0,17.9,1.1,17.9,0.7S284.4,55.8,284.4,55.8z
	"/>
<path class="st0" d="M214.3,58.9l-3.8,0.2l-12.3-0.5l-12.3,0.2l0,5.3l4.5,0.6l4.4-0.6c0,0,17.9,1.1,17.9,0.7S214.3,58.9,214.3,58.9z
	"/>
<path class="st0" d="M181,23.1c-0.4,0-13.9,0.1-14.6,0.1c-0.7,0-7.6,0.1-7.6,0.1l1.5,5.8v49.7l0.4,3.8c0,0-0.8,20.8-0.8,21.4
	c0,0.6-0.3,2.5-0.3,2.5s15.1-0.1,15.5-0.1c0.4,0,4.9-0.7,4.9-0.7l1-7.3l-6.6,1.8l-6.2-1.5l1-17c0,0,3.5,0.1,3.9,0.1
	c0.4,0,6.1-1.3,6.1-1.3l0.1-7.5l-10,1.3L169,43.8l0.8-13.4l10.6-0.4L181,23.1z"/>
<path class="st0" d="M364.8,105.3l0.2-32.1l-0.1-29.1c0,0-0.5-1.2-0.5-8.1c0-9.5-8-11.1-11.4-11.1c-3.4,0-12.9,0.2-12.9,0.2l1.6,6.1
	l-2,86.3l1,4.2l8.5-1.3l-0.9-22.8c2.6,0,5.5-0.3,8.5-0.5l-0.2,5.3l0.4,8.5l9.6,0.7L364.8,105.3z M348.5,90.5l1.2-58.1
	c0,0-1.4,0,2.3,0.1c3.7,0.1,4.8,3.1,5.1,6.9l0.2,6.8l0,31.7l-0.2,13L348.5,90.5z"/>
<path class="st0" d="M442.7,65.3l-9.4,0.2V51.7l-0.7-15.8l0.2-3.2c0,0,0.2-10.4-6.4-9.6c-5.6,0.6-7.4,8.4-7.4,31.8
	s1.5,40.5,1.5,41.9c0,1.5,2.2,8.1,7.4,8.1c4.8,0,5.9-4.9,6.2-11.3c0.2-4-0.2-7.4-0.2-7.4l8.4-1.7c0,0,0.7,15-1,20
	c-1.7,4.9-6.2,8.3-13.1,8.1c-9.6-0.2-17.8-0.5-17.5-37.2c0.2-36.8,0.5-25.4,0.5-25.4l-0.5-7.2l0.5-11.6c0,0,0-15.5,16.3-15.3
	s14.1,17,14.1,17l0.5,15.8l-0.2,4.9L442.7,65.3z"/>
<path class="st0" d="M335.7,104.8V65.9c0,0-0.7-12.2-1.1-17.4c-0.4-5.2-5.9-8.5-10.7-7.8c-2.5,0.4-4.8,1.1-6.6,2.2
	c-0.2-4.8-0.3-9-0.4-10.7c-0.4-5.2-5.9-8.5-10.7-7.8c-2.6,0.4-4.9,1.1-6.7,2.3l-0.3-6.7L289,20l1.2,14.1l0.4,67l-0.7,11.5h7.4l3,0.4
	l-1.9-12.6l1.9-15.5l-0.4-7.8l-0.7-38.5l0.1-2.1c1.5-0.7,4.3-1.9,6.6-2.4c3.3-0.7,1.1,7.4,1.1,9.3c0,1.9,1.9,37.4,1.9,39.2
	s1.9,18.5,1.5,19.6s-1.9,11.8-1.9,11.8l10,0.4l0.4-3l-0.7-6.7V65.9c0,0-0.2-6.3-0.4-13.4c1.6-0.7,4-1.7,5.9-2.1
	c3.3-0.7,2.2,12.2,2.2,14.1s0.7,16.3,0.7,18.1s-0.4,17-0.7,18.1c-0.4,1.1,0.7,8.9,0.7,8.9l10,0.4l0.4-3L335.7,104.8z"/>
</svg>
